<svg width="62" height="62" viewBox="0 0 62 62" fill="none" xmlns="http://www.w3.org/2000/svg">
<circle cx="31" cy="31" r="31" fill="#38AAEB"/>
<path d="M32.1133 22.22C35.1053 22.22 36.3813 23.584 36.3813 25.564C36.3813 27.896 35.2373 29.04 28.8133 30.712C22.6533 32.296 19.9693 34.76 19.9693 40.788C19.9693 41.932 19.9693 42.944 20.0573 44H42.6733V38.632H32.9933C30.9693 38.632 27.8013 38.852 25.3813 39.116C25.6453 36.74 27.1853 35.86 31.8933 34.76C38.3173 33.484 42.5853 30.932 42.5853 25.784C42.5853 19.8 38.8893 17.028 32.1573 17.028C24.6773 17.028 21.4653 21.032 20.8053 27.28L26.7453 27.984C27.1413 24.2 28.7693 22.22 32.1133 22.22Z" fill="white"/>
</svg>
